<svg width="110" height="110" viewBox="0 0 110 110" fill="none" xmlns="http://www.w3.org/2000/svg">
<rect width="110" height="110" rx="5" fill="#E6E3F1"/>
<path d="M77.6547 21H31.6219C24.6427 21 19 26.4402 19 33.1688V75.8312C19 82.5598 24.6427 88 31.6219 88H77.6547C84.6339 88 90.2766 82.5598 90.2766 75.8312V33.1688C90.2766 26.4402 84.6339 21 77.6547 21ZM87.277 74.7145C87.2837 76.0802 87.0106 77.4336 86.4734 78.6973C85.9362 79.9609 85.1455 81.1099 84.1466 82.0782C83.1478 83.0465 81.9604 83.8152 80.6527 84.34C79.345 84.8649 77.9427 85.1356 76.5262 85.1368H32.7504C26.8107 85.1368 21.9699 80.4697 21.9699 74.7432V34.2568C21.9699 28.5303 26.8107 23.8632 32.7504 23.8632H76.4965C79.3556 23.8632 82.0977 24.9583 84.1195 26.9075C86.1412 28.8566 87.277 31.5003 87.277 34.2568V74.7145ZM47.184 52.3526L55.4996 67.7568C55.648 67.9859 55.559 68.215 55.3214 68.215H50.1538C49.8271 68.215 49.6786 68.1291 49.5301 67.8427C47.6294 64.0633 45.699 60.2838 43.7092 56.218H43.6498C41.8679 60.0547 39.9078 64.0919 38.0071 67.8714C37.8586 68.1004 37.7101 68.1863 37.4725 68.1863H32.5723C32.2753 68.1863 32.2456 67.9573 32.3941 67.7855L40.5315 52.8393L32.6613 37.7214C32.4832 37.4923 32.6613 37.3205 32.8395 37.3205H37.9477C38.2447 37.3205 38.3635 37.3778 38.4823 37.6355C40.3533 41.415 42.254 45.309 44.0359 49.1171H44.0953C45.8178 45.3376 47.7185 41.415 49.5598 37.6641C49.7083 37.435 49.7974 37.2919 50.0944 37.2919H54.8759C55.1135 37.2919 55.2026 37.4637 55.0541 37.6927L47.184 52.3526ZM56.9548 57.0197C56.9548 50.3483 61.5581 45.1372 68.8639 45.1372C69.4876 45.1372 69.8143 45.1372 70.4082 45.1944V37.6068C70.4082 37.435 70.5567 37.3205 70.7052 37.3205H75.3976C75.6352 37.3205 75.6946 37.4064 75.6946 37.5496V63.8342C75.6946 64.6073 75.6946 65.5808 75.8431 66.6402C75.8431 66.812 75.7837 66.8692 75.6055 66.9551C73.1108 68.1004 70.4973 68.6158 68.0027 68.6158C61.5581 68.6445 56.9548 64.8077 56.9548 57.0197ZM70.4082 49.6897C69.9925 49.5179 69.3985 49.4034 68.6857 49.4034C64.9437 49.4034 62.3302 52.1808 62.3302 56.7906C62.3302 62.059 65.0031 64.1778 68.359 64.1778C69.0718 64.1778 69.844 64.0919 70.4082 63.8628V49.6897Z" fill="#B5AAD5"/>
</svg>
