<svg width="110" height="110" viewBox="0 0 110 110" fill="none" xmlns="http://www.w3.org/2000/svg">
<rect width="110" height="110" rx="5" fill="#E6E3F1"/>
<path d="M50.1875 65.125C49.184 65.125 48.3429 64.7856 47.6641 64.1068C46.9852 63.428 46.6458 62.5868 46.6458 61.5833V58.0417H51.9583V59.8125H59.0417V56.2708H50.1875C49.184 56.2708 48.3429 55.9314 47.6641 55.2526C46.9852 54.5738 46.6458 53.7326 46.6458 52.7292V47.4167C46.6458 46.4132 46.9852 45.572 47.6641 44.8932C48.3429 44.2144 49.184 43.875 50.1875 43.875H60.8125C61.816 43.875 62.6571 44.2144 63.3359 44.8932C64.0148 45.572 64.3542 46.4132 64.3542 47.4167V50.9583H59.0417V49.1875H51.9583V52.7292H60.8125C61.816 52.7292 62.6571 53.0686 63.3359 53.7474C64.0148 54.4262 64.3542 55.2674 64.3542 56.2708V61.5833C64.3542 62.5868 64.0148 63.428 63.3359 64.1068C62.6571 64.7856 61.816 65.125 60.8125 65.125H50.1875ZM73.2083 65.125C72.2049 65.125 71.3637 64.7856 70.6849 64.1068C70.0061 63.428 69.6667 62.5868 69.6667 61.5833V58.0417H74.9792V59.8125H82.0625V56.2708H73.2083C72.2049 56.2708 71.3637 55.9314 70.6849 55.2526C70.0061 54.5738 69.6667 53.7326 69.6667 52.7292V47.4167C69.6667 46.4132 70.0061 45.572 70.6849 44.8932C71.3637 44.2144 72.2049 43.875 73.2083 43.875H83.8333C84.8368 43.875 85.6779 44.2144 86.3568 44.8932C87.0356 45.572 87.375 46.4132 87.375 47.4167V50.9583H82.0625V49.1875H74.9792V52.7292H83.8333C84.8368 52.7292 85.6779 53.0686 86.3568 53.7474C87.0356 54.4262 87.375 55.2674 87.375 56.2708V61.5833C87.375 62.5868 87.0356 63.428 86.3568 64.1068C85.6779 64.7856 84.8368 65.125 83.8333 65.125H73.2083ZM27.1667 65.125C26.1632 65.125 25.322 64.7856 24.6432 64.1068C23.9644 63.428 23.625 62.5868 23.625 61.5833V47.4167C23.625 46.4132 23.9644 45.572 24.6432 44.8932C25.322 44.2144 26.1632 43.875 27.1667 43.875H37.7917C38.7951 43.875 39.6363 44.2144 40.3151 44.8932C40.9939 45.572 41.3333 46.4132 41.3333 47.4167V50.9583H36.0208V49.1875H28.9375V59.8125H36.0208V58.0417H41.3333V61.5833C41.3333 62.5868 40.9939 63.428 40.3151 64.1068C39.6363 64.7856 38.7951 65.125 37.7917 65.125H27.1667Z" fill="#B5AAD5"/>
</svg>
