<svg width="29" height="29" viewBox="0 0 29 29" fill="none" xmlns="http://www.w3.org/2000/svg">
<path d="M14.5 27.8203C21.8566 27.8203 27.8203 21.8566 27.8203 14.5C27.8203 7.14339 21.8566 1.17969 14.5 1.17969C7.14339 1.17969 1.17969 7.14339 1.17969 14.5C1.17969 21.8566 7.14339 27.8203 14.5 27.8203Z" fill="#E6E3F1"/>
<path fill-rule="evenodd" clip-rule="evenodd" d="M14.5 0.75C6.90931 0.75 0.75 6.90931 0.75 14.5C0.75 22.0907 6.90931 28.25 14.5 28.25C22.0763 28.25 28.25 22.0907 28.25 14.5C28.25 6.90931 22.0763 0.75 14.5 0.75ZM23.5819 7.08806C25.2222 9.08662 26.2067 11.6366 26.2363 14.3955C25.8486 14.3212 21.9711 13.5306 18.064 14.0229C17.9746 13.829 17.8997 13.62 17.8103 13.4117C17.5718 12.8452 17.3029 12.2636 17.0348 11.7115C21.3599 9.9515 23.3289 7.416 23.5819 7.08806ZM14.5 2.77812C17.4824 2.77812 20.2118 3.89669 22.2846 5.73094C22.0756 6.02931 20.3011 8.4005 16.1253 9.96594C14.2016 6.4315 12.069 3.5385 11.7411 3.09094C12.6211 2.88263 13.5457 2.77812 14.5 2.77812ZM9.50394 3.88156C9.81675 4.29888 11.9047 7.207 13.8586 10.6672C8.37025 12.1288 3.52338 12.0992 3.00156 12.0992C3.76263 8.46031 6.22319 5.43256 9.50394 3.88156ZM2.74856 14.5151C2.74856 14.3955 2.74856 14.2766 2.74856 14.1569C3.25594 14.1721 8.95256 14.2463 14.8135 12.4863C15.1566 13.1422 15.4694 13.8139 15.7677 14.4849C15.6186 14.5296 15.4543 14.5743 15.3058 14.6189C9.25094 16.5728 6.03 21.9112 5.76119 22.3588C3.89669 20.2867 2.74856 17.5271 2.74856 14.5151ZM14.5 26.2514C11.7858 26.2514 9.2805 25.3268 7.29706 23.7758C7.50606 23.3433 9.89169 18.7501 16.5137 16.4387C16.5433 16.4236 16.5584 16.4236 16.5886 16.4092C18.2441 20.6896 18.9151 24.2831 19.0939 25.3123C17.6762 25.9235 16.1253 26.2514 14.5 26.2514ZM21.0471 24.2384C20.9274 23.5228 20.3011 20.0928 18.7653 15.8723C22.4489 15.2906 25.6698 16.2449 26.0727 16.3796C25.566 19.6452 23.6864 22.4633 21.0471 24.2384Z" fill="#B5AAD5"/>
</svg>
