<svg width="110" height="110" viewBox="0 0 110 110" fill="none" xmlns="http://www.w3.org/2000/svg">
<rect width="110" height="110" rx="5" fill="#E6E3F1"/>
<path d="M54.8693 55.3039C54.8693 52.8017 55.8633 50.402 57.6326 48.6326C59.402 46.8633 61.8017 45.8693 64.3039 45.8693C66.8062 45.8693 69.2059 46.8633 70.9752 48.6326C72.7446 50.402 73.7386 52.8017 73.7386 55.3039C73.7386 57.8062 72.7446 60.2059 70.9752 61.9752C69.2059 63.7446 66.8062 64.7386 64.3039 64.7386C61.8017 64.7386 59.402 63.7446 57.6326 61.9752C55.8633 60.2059 54.8693 57.8062 54.8693 55.3039ZM36 74.1732C36 71.671 36.994 69.2713 38.7633 67.5019C40.5327 65.7326 42.9324 64.7386 45.4346 64.7386H54.8693V74.1732C54.8693 76.6755 53.8753 79.0752 52.1059 80.8445C50.3366 82.6139 47.9369 83.6079 45.4346 83.6079C42.9324 83.6079 40.5327 82.6139 38.7633 80.8445C36.994 79.0752 36 76.6755 36 74.1732ZM54.8693 27V45.8693H64.3039C66.8062 45.8693 69.2059 44.8753 70.9752 43.1059C72.7446 41.3366 73.7386 38.9369 73.7386 36.4346C73.7386 33.9324 72.7446 31.5327 70.9752 29.7633C69.2059 27.994 66.8062 27 64.3039 27H54.8693ZM36 36.4346C36 38.9369 36.994 41.3366 38.7633 43.1059C40.5327 44.8753 42.9324 45.8693 45.4346 45.8693H54.8693V27H45.4346C42.9324 27 40.5327 27.994 38.7633 29.7633C36.994 31.5327 36 33.9324 36 36.4346ZM36 55.3039C36 57.8062 36.994 60.2059 38.7633 61.9752C40.5327 63.7446 42.9324 64.7386 45.4346 64.7386H54.8693V45.8693H45.4346C42.9324 45.8693 40.5327 46.8633 38.7633 48.6326C36.994 50.402 36 52.8017 36 55.3039Z" fill="#B5AAD5"/>
</svg>
