<svg width="110" height="110" viewBox="0 0 110 110" fill="none" xmlns="http://www.w3.org/2000/svg">
<rect width="110" height="110" rx="5" fill="#E6E3F1"/>
<g clip-path="url(#clip0_306_113)">
<path d="M13 65.125V43.875H18.3125V50.9583H25.3958V43.875H30.7083V65.125H25.3958V56.2708H18.3125V65.125H13ZM40.4479 65.125V49.1875H34.25V43.875H51.9583V49.1875H45.7604V65.125H40.4479ZM55.5 65.125V47.4167C55.5 46.4132 55.8394 45.572 56.5182 44.8932C57.197 44.2144 58.0382 43.875 59.0417 43.875H74.9792C75.9826 43.875 76.8238 44.2144 77.5026 44.8932C78.1814 45.572 78.5208 46.4132 78.5208 47.4167V65.125H73.2083V49.1875H69.6667V61.5833H64.3542V49.1875H60.8125V65.125H55.5ZM83.8333 65.125V43.875H89.1458V59.8125H98V65.125H83.8333Z" fill="#B5AAD5"/>
</g>
<defs>
<clipPath id="clip0_306_113">
<rect width="85" height="85" fill="white" transform="translate(13 12)"/>
</clipPath>
</defs>
</svg>
