<svg width="110" height="110" viewBox="0 0 110 110" fill="none" xmlns="http://www.w3.org/2000/svg">
<rect width="110" height="110" rx="5" fill="#E6E3F1"/>
<path d="M39.5625 65.125C38.0868 65.125 36.8325 64.6085 35.7995 63.5755C34.7665 62.5425 34.25 61.2882 34.25 59.8125V56.2708H39.5625V59.8125H44.875V43.875H50.1875V59.8125C50.1875 61.2882 49.671 62.5425 48.638 63.5755C47.605 64.6085 46.3507 65.125 44.875 65.125H39.5625ZM59.0417 65.125C58.0382 65.125 57.197 64.7856 56.5182 64.1068C55.8394 63.428 55.5 62.5868 55.5 61.5833V58.0417H60.8125V59.8125H67.8958V56.2708H59.0417C58.0382 56.2708 57.197 55.9314 56.5182 55.2526C55.8394 54.5738 55.5 53.7326 55.5 52.7292V47.4167C55.5 46.4132 55.8394 45.572 56.5182 44.8932C57.197 44.2144 58.0382 43.875 59.0417 43.875H69.6667C70.6701 43.875 71.5113 44.2144 72.1901 44.8932C72.8689 45.572 73.2083 46.4132 73.2083 47.4167V50.9583H67.8958V49.1875H60.8125V52.7292H69.6667C70.6701 52.7292 71.5113 53.0686 72.1901 53.7474C72.8689 54.4262 73.2083 55.2674 73.2083 56.2708V61.5833C73.2083 62.5868 72.8689 63.428 72.1901 64.1068C71.5113 64.7856 70.6701 65.125 69.6667 65.125H59.0417Z" fill="#B5AAD5"/>
</svg>
