<svg width="26" height="26" viewBox="0 0 26 26" fill="none" xmlns="http://www.w3.org/2000/svg">
<path d="M25.75 22.2083C25.75 24.1647 24.1647 25.75 22.2083 25.75H3.79167C1.83596 25.75 0.25 24.1647 0.25 22.2083V3.79167C0.25 1.83525 1.83596 0.25 3.79167 0.25H22.2083C24.1647 0.25 25.75 1.83525 25.75 3.79167V22.2083Z" fill="#B5AAD5"/>
<path d="M4.5 9.45833H8.04167V21.5H4.5V9.45833ZM6.26021 8.04167H6.24037C5.18354 8.04167 4.5 7.254 4.5 6.27012C4.5 5.265 5.20479 4.5 6.28075 4.5C7.35812 4.5 8.02183 5.265 8.04167 6.27012C8.04167 7.25329 7.35812 8.04167 6.26021 8.04167ZM21.5 21.5H17.9583V15.0549C17.9583 13.498 17.0906 12.4355 15.6973 12.4355C14.6341 12.4355 14.059 13.1523 13.7799 13.845C13.6779 14.093 13.7083 14.7786 13.7083 15.125V21.5H10.1667V9.45833H13.7083V11.3113C14.219 10.5208 15.0188 9.45833 17.0644 9.45833C19.5988 9.45833 21.4993 11.0521 21.4993 14.6107L21.5 21.5Z" fill="#F3F1F8"/>
</svg>
